<svg xmlns="http://www.w3.org/2000/svg" xmlns:xlink="http://www.w3.org/1999/xlink" version="1.1" id="Your_Icon" x="0px" y="0px" viewBox="5.0 -10.0 100.0 135.0" enable-background="new 0 0 100 100" xml:space="preserve" height="100px" width="100px">
<path d="M87.681,55.066c-2.364-5.685-6.373-10.247-10.251-14.659l-0.277-0.315c-3.886-4.423-7.238-8.458-8.904-13.053  c-1.706-4.708-1.114-9.624,1.51-12.525c1.366-1.509,3.717-2.444,5.987-2.403c1.014,0.022,2.892,0.274,4.077,1.705  c1.252,1.512,3.493,1.723,5.004,0.472c1.512-1.252,1.723-3.492,0.472-5.004c-2.214-2.675-5.551-4.194-9.396-4.278  c-4.382-0.105-8.641,1.676-11.414,4.74c-4.434,4.901-5.553,12.455-2.922,19.715c2.088,5.762,5.876,10.348,10.246,15.322l0.278,0.317  c3.658,4.162,7.113,8.093,9.027,12.696c2.944,7.081,1.726,15.562-3.103,21.607c-2.339,2.928-5.308,5.248-8.486,6.717  c3.874-25.146-8.126-47.252-28.184-57.599c-0.156-0.081-0.315-0.151-0.474-0.216c0.721-1.498,1.151-3.093,1.151-4.749  c0-2.459-0.585-4.746-1.623-6.76c0.062-0.185,0.099-0.383,0.099-0.596l0.001-9.276c0-1.362-1.415-2.264-2.65-1.687l-7.823,3.657  c-1.255-0.293-2.57-0.449-3.924-0.449c-1.363,0-2.686,0.157-3.948,0.454l-7.834-3.662c-1.234-0.577-2.65,0.324-2.65,1.687  l0.001,9.276c0,0.233,0.045,0.449,0.118,0.648c-1.019,2.001-1.592,4.27-1.592,6.708c0,5.32,4.401,10.014,8.802,12.823v53.147  c-1.061,0.877-1.737,2.203-1.737,3.688c0,2.323,7.397,2.194,9.181,0.692c1.538,1.829,9.301,1.212,9.301-0.692  c0-1.319-0.534-2.514-1.398-3.379V75.182c1.487,3.564,2.904,7.533,4.288,11.342c0.183,0.503,0.411,0.982,0.68,1.438  c-1.183,0.614-1.993,1.847-1.993,3.272v0.075c0,2.036,1.651,3.687,3.687,3.687h16.325c0.258,0,0.509-0.027,0.752-0.077  c0.304,0.008,0.602,0.017,0.89,0.026c0.909,0.027,1.761,0.052,2.592,0.052c0.934,0,1.842-0.032,2.777-0.13  c7.115-0.745,14.3-4.867,19.222-11.028C89.991,75.797,91.606,64.504,87.681,55.066z M27.578,89.832  c-0.465,0.466-0.83,1.029-1.072,1.653c-0.18-0.463-0.427-0.893-0.734-1.273V63.181c0.218,0.113,0.443,0.22,0.677,0.321  c0.382,0.164,0.758,0.392,1.128,0.668V89.832z"/>
<text x="0.0" y="117.5" font-size="5.0" font-weight="bold" font-family="Helvetica Neue, Helvetica, Arial-Unicode, Arial, Sans-serif" fill="#000000">Created by Nick Abrams</text><text x="0.0" y="122.5" font-size="5.0" font-weight="bold" font-family="Helvetica Neue, Helvetica, Arial-Unicode, Arial, Sans-serif" fill="#000000">from the Noun Project</text></svg>