<svg xmlns:dc="http://purl.org/dc/elements/1.1/" xmlns:cc="http://creativecommons.org/ns#" xmlns:rdf="http://www.w3.org/1999/02/22-rdf-syntax-ns#" xmlns:svg="http://www.w3.org/2000/svg" xmlns="http://www.w3.org/2000/svg" xmlns:sodipodi="http://sodipodi.sourceforge.net/DTD/sodipodi-0.dtd" xmlns:inkscape="http://www.inkscape.org/namespaces/inkscape" width="100" height="100" viewBox="0 0 80 80" version="1.1" id="svg2" inkscape:version="0.48.2 r9819" sodipodi:docname="blank.svg">
  <metadata id="metadata10">
    <rdf:RDF>
      <cc:Work rdf:about="">
        <dc:format>image/svg+xml</dc:format>
        <dc:type rdf:resource="http://purl.org/dc/dcmitype/StillImage"/>
        <dc:title/>
      </cc:Work>
    </rdf:RDF>
  </metadata>
  <defs id="defs8">
    <inkscape:path-effect is_visible="true" id="path-effect5043" effect="spiro"/>
    <inkscape:path-effect is_visible="true" id="path-effect5065" effect="spiro"/>
  </defs>
  <sodipodi:namedview pagecolor="#ffffff" bordercolor="#666666" borderopacity="1" objecttolerance="10" gridtolerance="10" guidetolerance="10" inkscape:pageopacity="0" inkscape:pageshadow="2" inkscape:window-width="1366" inkscape:window-height="706" id="namedview6" showgrid="true" inkscape:zoom="5.17" inkscape:cx="50" inkscape:cy="50" inkscape:window-x="-8" inkscape:window-y="-8" inkscape:window-maximized="1" inkscape:current-layer="svg2" inkscape:snap-grids="false">
    <inkscape:grid type="xygrid" id="grid3807"/>
  </sodipodi:namedview>
  <path style="fill:#000000;stroke:#000000;stroke-width:0.01049494" d="m 47.478898,5.311608 c 1.248209,-0.1305321 -0.612771,1.8316388 1.007515,1.7463585 -2.19289,1.7055562 1.318309,0.9299887 2.205337,-0.06716 -0.20813,0.7296951 1.807805,1.6348673 1.511272,0.044773 1.690933,-0.067193 -1.490797,1.7806718 0.912886,0.5599053 2.166045,0.023415 -1.843796,1.0145684 0.60958,1.287205 0.653172,-0.7097953 3.534529,0.4472547 1.645607,-0.9963211 -1.193042,0.6568035 1.015654,-1.4027016 1.130656,0.4477855 -0.08416,-2.1244528 3.949345,-1.3844461 0.97149,-0.3237701 -1.525634,2.2055519 1.689748,0.2640933 3.248876,1.488008 -0.03357,-2.1212278 1.257255,2.1396139 -0.548535,0.3022553 -1.642865,-0.1568215 -2.946992,1.0643726 -0.949616,0.6767986 -0.266655,2.141415 2.166414,-0.7665693 3.2669,1.125534 -1.238269,-0.07541 -3.399836,0.717559 -4.034258,-0.330242 -0.702863,0.705054 -1.561288,1.158464 -0.242082,1.606426 -1.556197,0.408744 1.952585,0.833793 2.615698,-0.346859 0.557358,-0.33401 3.49481,-0.976491 1.862144,0.234912 3.227283,0.471531 1.262271,0.741914 0.573724,1.599431 0.997138,-0.318251 1.194208,0.206711 2.224929,1.378336 -1.699376,-0.596728 -3.13064,2.055581 -1.085878,1.869499 1.712764,1.184093 -1.857118,0.525525 0.503757,0.806012 -0.960362,-0.601944 2.678142,-1.30307 1.18663,-0.29106 1.975398,-0.379247 1.846225,2.774574 0.951541,0.70526 -1.570291,1.196852 -3.399859,-1.613491 -1.925472,1.343354 0.731891,0.445891 -0.403858,0.364286 0.779424,0.736045 -0.03907,0.910855 -2.169684,0.957114 0.113338,1.010313 2.347487,-0.293895 -0.788794,2.479112 1.760352,1.746359 1.685472,2.610076 4.554706,-0.328508 5.586109,1.634411 -0.64013,0.03393 -3.191023,-0.563594 -1.177528,0.683746 -0.241074,-0.563863 -2.373055,2.171846 -2.326384,0.09988 -3.058064,2.006809 4.818999,3.46214 2.464212,3.990879 -1.635857,-1.573899 -3.250667,-0.478641 -0.292458,0.173516 -1.742598,-0.781776 0.186267,1.02158 -0.497825,1.661563 1.52587,1.013806 2.409304,1.001203 3.445387,1.808595 0.364273,0.638769 0.180335,-0.772597 0.917376,0.776794 0.475536,2.081376 -0.434811,-0.787322 -0.95434,0.779426 -0.305916,-0.500774 -1.55604,-2.481074 -0.694065,-0.783622 -2.682967,0.358622 1.420315,1.212866 1.209543,2.673411 1.629688,0.182399 1.571677,0.651722 0.368895,1.004017 0.09415,0.406194 3.253164,1.163647 0.707891,0.840819 -1.010548,0.49822 -0.226601,2.708279 -1.70421,1.023084 0.02644,0.70143 -0.883478,2.696955 -2.787458,1.735163 0.985518,1.758022 -1.590853,-0.850832 -0.705259,1.018709 -1.088541,-0.489521 -1.054476,1.035262 0.638092,0.268671 -0.201693,0.453195 -0.246125,4.185427 -1.291578,5.241874 -1.698435,0.475861 2.584802,0.685563 -0.238232,0.85936 -3.273617,0.370417 -6.262275,0.977896 -9.712374,0.576349 -2.359566,0.27529 -4.061773,2.190202 -6.232598,0.442186 -0.365,0.699296 -3.566479,-0.0196 -2.126616,-0.362775 -1.132469,-0.09368 -2.880876,0.388569 -1.030262,-0.264122 -2.274957,-0.360936 -4.083792,0.274338 -5.966726,1.253796 1.962414,-0.143057 -3.796628,1.262259 -0.380616,1.376936 -0.194697,0.608507 -2.68609,0.666461 -0.649287,0.761233 -0.04708,1.131306 -3.053721,1.498216 -1.108266,2.059809 -2.358794,1.641129 -2.514052,6.7178 -1.669396,9.542001 1.508138,2.627095 -0.02422,11.009006 3.006457,11.009006 -2.791912,0 -7.194381,0 -9.002009,0 1.526407,-3.596109 3.314646,-7.902553 2.364301,-11.981536 0.19548,-3.02384 0.631589,-6.716021 -2.250989,-8.730919 -1.779169,-1.482311 -4.123354,-2.683675 -5.546055,-2.917071 -1.596205,-2.435068 -4.131335,-0.830229 -5.358019,-1.529463 -0.551692,-0.199556 -3.126059,-0.685194 -1.470691,0.06296 -1.648417,0.147171 -5.152507,-0.08426 -4.749312,0.475771 -1.631726,-1.730423 -3.49153,0.513104 -5.237676,-0.701064 1.256851,0.345433 3.228044,-0.244264 1.09847,-1.442704 0.836417,-2.02752 -1.661,-3.588918 -2.214427,-1.566719 -2.2123573,1.038093 -2.6854964,-0.684672 -4.9277319,1.27566 -1.663663,-0.246105 -2.5759677,-1.385654 -1.82594,-2.348068 -0.345489,-1.9007 -5.13206816,-0.377827 -1.6331936,-1.334957 0.040087,-0.895922 1.2791075,-1.761014 -1.0187094,-1.388132 -1.4228219,0.632381 -0.00833,-2.268696 -1.5112716,-1.891888 2.651018,-0.201577 -2.8177053,-3.512895 0.9515427,-3.593469 -0.015186,-2.132774 0.7063449,-4.079767 0.2574753,-6.761542 0.9887853,1.806451 1.4367944,-1.059646 1.354548,0.694065 2.9539542,-0.609788 0.049444,-1.668927 0.033588,-2.888209 1.4687433,-0.436589 1.7305621,0.320218 0.2462803,0.335838 2.0822641,1.299036 3.1641332,2.079645 3.0897116,0.481369 1.3951169,1.851539 1.4265301,-1.453164 -1.0522928,-0.70526 2.2419562,0.727962 2.2462539,-0.792904 1.4427054,-1.067686 0.6450452,0.581733 -0.7582998,-2.491374 1.0605209,-1.73114 0.061135,-1.334433 -0.5228325,-3.006886 0.6657206,-0.867058 1.1262555,0.696407 0.4349788,-2.018848 1.5723285,0.124719 1.194498,0.273848 1.570256,3.853862 3.220889,1.33723 0.782066,-0.557185 -1.911758,-0.559696 -1.565846,-0.617102 0.563592,-1.156116 -2.293663,-1.313439 -0.732373,-2.025348 0.263107,0.545078 2.691239,2.054487 2.712419,1.276708 0.684752,-1.458227 2.050887,-1.826245 1.819124,-1.375537 -0.08416,-1.042198 1.691987,1.752534 1.757732,0.826478 -0.842808,-1.996084 -2.385502,-3.741257 -2.251693,-4.681621 -0.914679,-1.126249 1.262179,-0.154438 -0.163722,-1.688985 1.653164,1.067097 1.091653,-2.234209 2.250116,-0.31345 0.664803,-0.672763 2.1808,1.876404 1.645608,-0.39181 1.363312,0.261531 -0.704119,-1.836965 -0.559731,-0.257477 -0.72653,-0.849692 0.171949,-0.90514 0.123136,-2.474008 0.849211,1.319063 3.605682,1.047757 2.048613,-0.447784 0.02769,-2.501204 -2.70502,-0.421396 -4.074837,-2.071002 2.233235,-0.123935 1.823389,0.902682 4.030059,-0.156723 1.76231,0.405889 2.149677,2.229394 3.355415,1.901684 -2.273758,-1.05672 0.96962,-2.699137 0.316416,-0.188909 1.807447,-0.679445 -0.568529,1.60342 1.264991,2.227727 -0.398865,-0.984156 3.498773,2.157693 1.992639,-0.235087 -0.299052,-1.322591 -1.615752,-1.131534 -1.746359,-3.291215 -0.389728,-0.743457 -1.023164,-1.295116 -1.477688,-1.178232 -0.725355,-2.1611907 3.359714,-0.219105 1.99264,-1.620419 0.677946,-0.8911087 2.682709,0.783364 1.332158,-0.5037576 0.889412,-0.1319038 1.839141,-1.6665566 1.193178,-0.11195 0.194998,1.0999746 1.182095,-0.7639839 1.784587,0.8395966 1.593441,-0.286454 3.472837,-0.692721 2.216532,-1.1978237 -0.497857,-2.5024719 0.02351,-0.5353387 1.014512,-0.6143046 0.583709,-0.2253027 0.751069,2.5527973 0.980928,0.071373 -0.02294,-1.5410863 -0.237326,-3.5157177 0.87038,-1.8527078 0.673893,-3.1435345 -0.278208,2.8375693 1.209018,0.2238919 -0.422943,1.2462818 0.841074,1.0055598 0.07836,2.4516192 1.609146,-0.4453443 -0.500622,2.043017 1.41857,2.334601 1.493427,-1.381781 -0.196824,1.64467 1.156189,1.964129 1.54977,-0.190921 -0.762677,-2.006677 1.18663,-0.884374 -0.452005,-1.788627 1.694078,-2.173306 2.362061,-0.716454 -0.760707,-1.488306 0.357645,-1.825645 0.873179,-0.358229 3.130427,-1.8499079 -3.1746,-1.39891 -1.266389,-3.8082661 -1.291299,-1.740694 2.22823,-1.8789775 2.67691,-1.0054145 1.976049,1.3850731 1.448885,-0.3412892 1.522467,-1.6344133 z m 4.298728,3.0561282 c 0.248274,1.351315 1.640659,-1.0175206 0,0 z M 51.374621,8.804325 c 0.517414,1.569031 1.266704,0.052562 0,0 z M 56.8152,8.7930582 c -0.02655,0.3948574 0.333174,-0.188065 0,0 z m -1.869499,0.4925622 c 1.454346,0.3694204 1.039037,-0.6184505 0,0 z M 52.471692,9.0953853 c -0.541986,0.7743363 1.627887,0.2221888 0,0 z m 2.037419,0.145522 c -0.08244,0.7385649 0.697268,-0.089171 0,0 z m 2.966571,0.2686703 c -0.559004,0.5070984 0.575548,0.3070543 0,0 z m -2.059809,0.089563 c -0.265322,1.8725134 3.435268,-0.067846 0,0 z M 52.2478,9.8342278 C 51.794776,10.949065 51.830141,13.62146 53.078832,10.933574 53.602113,10.346865 52.81287,9.7234632 52.2478,9.8342278 z m 2.026224,0.2798652 c 0.919693,0.732164 0.775786,-1.0343229 0,0 z M 49.38198,9.9237846 c -0.274514,1.3226614 1.989955,0.4551974 0,0 z m 7.757864,0.011267 c -0.418791,0.5936794 0.581021,0.073529 0,0 z m -6.26898,0.1231354 c -0.409857,0.39754 0.447214,0.319746 0,0 z m 4.142004,0.201503 0.04198,0.04198 z m 2.630733,0.436589 c 0.07003,0.565312 0.54024,-0.164584 0,0 z m 0.772427,0.302255 c 1.100665,-0.218456 1.008893,-0.50731 0,0 z m -9.325106,-0.145538 c -0.889133,0.277111 0.220219,0.603332 0,0 z m 0.4142,-0.04477 c -0.524983,0.621374 0.742259,0.235105 0,0 z m 4.365896,-0.04477 c -0.75642,1.371715 0.631522,0.991442 0,0 z m -2.765067,0.638092 c -0.09002,0.53334 0.625912,-0.166767 0,0 z m -20.105515,0.425396 c 0.588523,0.686226 1.240017,2.708077 1.30977,0.839596 1.075778,2.168156 0.04428,-2.09402 -1.30977,-0.839596 z m 25.143088,-0.11195 0.04198,0.04198 z m -27.012586,0.470174 c 0.03181,1.720978 1.741365,-0.202864 0,0 z m 26.900639,0.08956 c -0.81846,0.295614 0.450673,0.473271 0,0 z m -3.40316,0.750039 c 1.78367,0.327406 0.8075,-1.295368 0,0 z m -22.456382,0.145522 c 0.271974,1.38377 2.205898,2.33174 0.134337,2.675511 0.417056,1.418459 0.91066,-0.09794 0.8312,-0.08956 0.02957,1.376296 2.578062,0.458017 1.105467,-1.354548 -1.135502,-2.155154 -1.230175,-0.5526 -2.071002,-1.231407 z M 48.240131,13.06954 c 0.117975,0.576324 0.619801,-0.275464 0,0 z m 13.478307,0.201502 c -0.39124,0.294934 0.392964,0.27781 0,0 z m 1.802331,0.01127 0.04198,0.04198 z m -21.280948,0.08956 c -0.323904,0.469558 0.548213,0.163375 0,0 z m 20.36299,0 c -0.960977,1.078876 1.489633,0.417252 0,0 z m -18.997247,0.11195 c -1.041053,1.236551 -1.169579,1.231994 0.302254,0.906762 -0.619734,-0.84615 0.511102,-0.28632 -0.302254,-0.906762 z m 18.504685,0.05598 c -1.802735,1.162296 0.793015,0.27316 0,0 z m 1.085876,-0.03359 c -0.01831,0.385611 0.338928,-0.19553 0,0 z m -2.362061,0.16792 c -0.279911,0.732589 0.571451,-0.01716 0,0 z m -0.929153,0.246281 c 1.043841,1.243208 0.685547,-1.108583 0,0 z m -19.556978,0.05598 c -0.201435,0.331217 0.396155,-0.01306 0,0 z m 7.343662,-0.01127 c 1.267544,0.873837 1.000204,-0.277563 0,0 z m -15.034357,0.145538 c -0.435929,1.949057 1.473536,-0.273799 0,0 z m 26.340911,0.279865 c 1.312947,-0.474579 -0.04801,-0.482289 0,0 z m -5.194299,-0.201501 0.04198,0.04198 z m 5.765223,-0.08956 c -0.352853,1.146252 1.600247,0.903349 0,0 z m -5.339827,0.190307 0.04198,0.04198 z m -21.034666,0.08956 c -0.338637,2.749848 1.124252,0.810118 0,0 z m 4.074836,0.582121 c 0.04071,1.492347 1.978803,-0.27353 0.156724,0.414201 0.846715,-0.837106 1.358062,-1.304669 -0.156724,-0.414201 z m 25.243838,-0.425395 c -0.06154,0.484814 0.490224,-0.07368 0,0 z m 0.302255,-0.02239 c -0.196689,0.338606 0.386506,-0.008 0,0 z m -1.186629,0.11195 0.04198,0.04198 z m 2.238922,0 c -0.05583,0.488493 0.485722,-0.0868 0,0 z m -29.453011,1.119461 c 0.928101,-0.556339 0.298696,-1.539476 0,0 z m 29.016421,-0.906764 c -0.717081,0.415472 0.524658,0.305954 0,0 z M 24.451593,14.96145 c -0.554627,0.409214 0.49095,0.366311 0,0 z m 35.162258,-0.01127 c -0.0129,0.396967 0.341704,-0.193458 0,0 z m 0.470174,0.02239 c 0.0483,0.631056 0.680072,-0.308983 0,0 z m 0.761232,-0.01127 c -0.0972,0.526818 0.612022,-0.177874 0,0 z m -24.314685,0.235087 c -0.171702,0.725343 0.578425,-0.10888 0,0 z m 19.411449,0.01127 c -1.054084,1.230921 1.096746,-0.352989 0,0 z m 6.761542,0.145522 c -1.767673,-0.01741 0.133798,0.753672 0,0 z m -3.985279,0.16792 c 1.509816,1.394408 1.035366,-0.20772 0,0 z m 1.936667,-0.07836 c -0.476365,0.953047 1.122638,-0.550118 0,0 z m -22.131739,0.08956 c 0.889926,1.115965 1.618248,-0.173704 0,0 z m 0.705261,0.70526 c 0.602045,0.456389 -1.210754,1.745488 0.358227,1.264992 0.199399,0.989814 -1.311179,3.404749 1.186628,2.048612 -0.318945,-0.871011 0.469625,-5.109265 -1.544855,-3.313604 z m 19.153972,-0.514952 c -0.215306,0.959606 0.991964,-0.219321 0,0 z m -20.676438,0.134337 c -0.01355,0.613361 0.61587,-0.0051 0,0 z m 19.534588,-0.01127 c -0.387826,0.288926 0.388599,0.280901 0,0 z m -20.139097,0.134337 0.04198,0.04198 z m 23.687788,0.358227 c -0.74621,1.286076 2.018387,-0.756383 0,0 z m -16.601603,1.041158 c -0.74013,-0.488331 0.04435,1.400037 1.209018,0.279865 0.74986,-1.856025 -0.672461,-1.13747 -1.209018,-0.279865 z m -3.28002,-0.682871 c -0.310839,0.482953 0.488456,0.23889 0,0 z M 24.653095,16.7637 c -0.180255,0.343596 0.395673,-0.02622 0,0 z m 6.727958,0.660481 c 1.577343,1.369015 0.534219,-2.125488 0,0 z m 0.694066,-0.70526 c -0.0026,0.397888 0.34148,-0.194601 0,0 z m -1.589633,0.212697 c -0.310841,0.482953 0.488453,0.23889 0,0 z m 15.135107,-0.05598 c -0.111917,0.795086 0.74452,-0.133879 0,0 z m -10.903546,0.02239 c 1.049293,1.39553 0.465437,-0.01159 0,0 z m 28.031294,0.06716 c -0.008,0.385573 0.32807,-0.204702 0,0 z m 0,0.223892 c -0.008,0.385573 0.32807,-0.204702 0,0 z m -29.475399,0.257477 c -0.190622,1.615642 1.067753,-0.383938 0,0 z m -7.388441,0.223892 c 0.320703,1.078703 0.647373,-0.771206 0,0 z m 34.826421,-0.01127 c -0.196688,0.338607 0.386506,-0.008 0,0 z m 1.01871,0.03359 c -0.99688,1.379615 1.026211,0.481683 0,0 z m 0.335838,0.06716 0.04198,0.05037 z M 36.720881,18.24138 c -0.736314,2.295588 1.442089,-1.066161 0,0 z m 8.071311,-0.29106 c 0.828502,1.605433 0.760472,-0.500805 0,0 z m -13.120078,0.80601 c 1.605171,-0.801246 -0.289078,-1.217232 0,0 z m 19.848037,-0.649285 c -0.192614,0.329851 0.385318,-0.01127 0,0 z M 38.344099,18.34213 c -0.216727,1.797528 1.078353,-0.342349 0,0 z m 13.310387,0.11195 c -0.482275,0.319445 0.400398,0.373966 0,0 z m -19.478615,0.134337 c -0.457245,0.445018 0.458766,0.425158 0,0 z m -0.794818,0.06716 c -0.33633,0.428847 0.598374,0.194639 0,0 z m 21.280948,-0.01127 c -0.385039,0.283515 0.385038,0.283515 0,0 z m -15.470947,0.134337 c -0.209753,0.336533 0.387591,0.0054 0,0 z m 16.489656,-0.03359 c -0.402805,0.512114 0.644038,0.16744 0,0 z m 4.142004,0.02239 0.04198,0.04198 z m -7.231716,0.705261 c 0.883703,0.387043 0.334361,-1.573115 0,0 z m 11.138634,-0.481369 0.04198,0.04198 z M 34.72824,19.125674 c -0.204704,0.328061 0.385576,-0.0082 0,0 z m 21.180197,-0.02239 0.04198,0.04198 z m -19.411448,1.007515 c 1.003495,-1.12958 0.587336,-1.365791 0,0 z m 1.052292,-0.884374 c -1.253314,2.007757 0.778463,0.358899 0,0 z M 22.08953,19.349563 c -0.05676,0.48829 0.488297,-0.05676 0,0 z m 4.578593,0.302337 c 2.187539,0.547487 0.453506,-0.844663 0,0 z m 34.62492,-0.347032 c 0.0052,0.387583 0.336533,-0.209756 0,0 z m -35.912299,0.134336 c 0.01814,0.554632 0.557771,-0.115999 0,0 z m 16.545629,-0.01127 c -0.008,0.385572 0.328069,-0.204704 0,0 z m 3.40316,-0.05598 c -1.246889,1.100299 1.151937,0.832826 0,0 z m 19.187557,0.08956 c -0.0868,0.485724 0.488498,-0.05583 0,0 z m -5.798806,0.07836 c -0.0047,0.386706 0.336823,-0.208731 0,0 z m -25.187867,0.123135 c -0.1055,0.482667 0.503031,-0.04285 0,0 z m 17.922566,0.223892 c -0.124671,0.673762 0.599819,-0.163618 0,0 z m 9.593778,0 c -0.530277,0.810917 1.273263,0.537842 0,0 z m 0.313449,0.01127 c -0.193454,0.341695 0.396972,-0.0129 0,0 z m -30.292605,0.08956 c -0.08522,0.496014 0.490738,-0.06362 0,0 z m 6.92946,0.123135 c -0.406989,0.280775 0.401082,0.294677 0,0 z m 12.851409,0 c -0.17327,1.385962 1.305638,-0.398025 0,0 z m 6.324953,-0.08956 c -0.41504,0.874588 -1.463695,1.36002 -0.145522,1.914277 -0.267651,-0.657153 0.471361,0.02647 -0.100749,-0.772428 -0.579859,-0.692641 1.047501,-0.225017 0.246281,-1.141849 z m 1.57844,0.08956 c 0.141146,0.480139 0.409331,-0.264681 0,0 z m -25.456535,0.11195 c -0.193455,0.341696 0.396972,-0.0129 0,0 z m 3.313603,1.26499 c 1.4586,1.069279 -0.516923,-3.043763 0,0 z m 0.492563,-1.074683 c 0.988125,0.961444 0.992838,-0.661983 0,0 z m 22.165321,-0.179113 0.04198,0.04198 z m 4.914432,0.481368 c 1.541687,0.814006 -0.0299,-1.480217 0,0 z m -19.590562,-0.4254 c 0.775115,1.581978 1.312635,0.126172 0,0 z m -6.616012,0.201504 c -0.265682,0.419404 0.467151,0.129372 0,0 z m -6.571234,0.06716 0.04198,0.04198 z m 1.903082,0 0.04198,0.04198 z m 25.590872,0 c 0.255539,0.460216 0.53987,-0.323542 0,0 z m 2.171754,0 0.04198,0.04198 z M 50.96042,21.084803 c 0.366612,1.018316 1.315008,-1.178204 0,0 z m 6.492872,0.156724 c 1.29834,0.16919 0.446956,-1.401344 0,0 z M 32.164676,20.793743 c -0.442523,0.318572 0.427735,0.368527 0,0 z m 4.936822,0.100748 c 0.800883,2.107977 1.382142,-0.565756 0,0 z m 2.037418,-0.179113 c -0.394788,1.130561 1.200756,1.149454 0,0 z m 19.109194,0.08956 c 0.331426,1.212138 1.504869,-0.08453 0,0 z m -18.112874,0.156723 c 0.148869,0.596672 0.763159,-0.03561 0,0 z m 10.23187,0.559729 c 1.132983,0.556253 0.202286,-1.42266 0,0 z m -16.50085,-0.279865 0.04198,0.04198 z m 23.598231,0.436591 c 0.913725,0.537608 1.037483,-1.25446 0,0 z m 3.033738,-0.436591 0.04198,0.04198 z m -10.858768,0.100749 c -0.0783,1.023828 1.234943,-0.23873 0,0 z m 6.145838,0.43659 c 0.625097,0.398389 0.558712,-1.403492 0,0 z m -4.343506,-0.313449 0.04198,0.04198 z m 3.1121,0 c -0.247031,0.482966 0.654438,0.0051 0,0 z m -31.792683,0.335837 c 1.063377,0.838653 1.612807,-0.766589 0,0 z m 1.70158,-0.223891 c -0.141244,0.701021 0.580586,-0.0902 0,0 z m 9.716919,0.03359 c -0.249976,0.427531 0.478939,0.122743 0,0 z m -8.351176,0.05598 c 0.138288,0.47946 0.43669,-0.248803 0,0 z m 24.717691,0.01127 c -0.662811,0.333869 0.500813,0.285732 0,0 z m -13.343971,0.156723 c -0.187936,0.967191 1.960052,-0.4605 0,0 z m 13.668615,-0.03359 0.04198,0.04198 z m -11.586418,0.100748 c 0.02908,0.521863 0.580496,-0.237789 0,0 z m 24.560966,0.02239 c -0.201435,0.331216 0.396156,-0.01306 0,0 z m -5.698054,0.100749 c -0.208724,0.336815 0.386706,-0.0049 0,0 z m -24.840833,0.100748 c 0.394342,0.91077 1.353026,0.145914 0,0 z m 16.657576,0.01127 c -0.474976,0.338239 0.426961,0.355268 0,0 z m 0.750037,0.313449 c 0.566124,0.537417 0.640746,-1.316865 0,0 z m 7.925782,-0.291059 c -0.819702,0.116865 0.277537,0.575548 0,0 z m 7.511581,-0.02239 c -1.448446,0.922803 1.129716,0.888249 0,0 z m -8.854932,0.11195 c 0.05619,0.635003 0.684605,-0.255501 0,0 z m -25.893126,0.145522 c -0.151759,0.619086 0.593526,0.130614 0,0 z m 6.951851,-0.04477 c -0.82033,0.507686 1.110493,0.582578 0,0 z m 18.504684,0.01127 c -0.02425,0.625618 0.635407,-0.0129 0,0 z m 1.052293,0.03359 c -0.153833,0.586022 0.696394,-0.0872 0,0 z m -14.396263,0.06716 c 0.130075,0.471952 0.414087,-0.246752 0,0 z m 12.605126,0.02239 c -0.203518,0.32834 0.38467,-0.01845 0,0 z m 7.791447,-0.02239 c 0.203597,0.58689 0.7061,-0.300665 0,0 z m 0.962736,-0.03359 c -0.0028,0.397096 0.331046,-0.202601 0,0 z m -8.418344,0.100748 c -0.339119,0.462482 0.557234,0.173303 0,0 z m 0.906762,0.02239 c -0.367105,0.43274 0.694156,0.01643 0,0 z m -24.046015,0.13432 c -0.628386,1.796053 1.875511,-0.08917 0.179114,0.470174 l 0.212698,-0.425396 z m -3.447938,0.324644 c 1.238055,0.438104 0.885907,-0.392833 0,0 z m 34.99434,-0.224083 c -0.0026,0.397889 0.34148,-0.194602 0,0 z m -39.248291,0.123135 c -0.182473,0.522284 0.550059,0.08687 0,0 z m 18.236014,0.02239 c 0.107149,1.536868 0.684124,0.824375 0,0 z m 12.078981,0.08956 c -0.04285,0.503029 0.482667,-0.1055 0,0 z m 8.742987,0 c 0.121013,0.476922 0.42422,-0.247536 0,0 z m -40.110275,0.08956 c -0.02622,0.395672 0.343596,-0.180255 0,0 z m 6.168228,0.145522 0.04198,0.04198 z m 34.009216,0.02239 c -0.164652,0.531212 0.561376,0.0147 0,0 z m 0.347032,0.03359 c -0.304068,0.739816 1.037102,0.127316 0,0 z m 0.43659,0.257476 c -0.506869,1.270257 0.875273,0.07289 0,0 z m -35.01673,0.145521 0.04198,0.04198 z m -2.6979,0.212697 c -0.209754,0.336535 0.38759,0.0054 0,0 z m 16.679963,-0.01127 c -0.270058,1.475924 1.00015,0.622758 0,0 z m 18.504686,0 c 0.148069,0.456087 0.398383,-0.263088 0,0 z m -29.419427,0.11195 c -0.344838,0.588136 0.619342,0.08955 0,0 z m -4.175588,0.11195 c -0.06708,0.773173 0.761412,-0.147368 0,0 z m 10.153509,-0.01127 c -0.0884,0.562059 0.574103,-0.06863 0,0 z m -18.560658,0.100748 c -0.38355,0.437953 0.673354,0.01 0,0 z m 0.548536,0.03359 0.04198,0.04198 z m 8.586262,0.223891 c 0.304561,0.974877 1.17342,-0.558288 0,0 z m 9.201968,-0.02239 c -0.320446,0.459423 0.544808,0.169207 0,0 z m 1.029903,0 c -1.436917,1.462824 1.070182,0.460345 0,0 z m 27.303647,0.156723 c -0.558859,0.51781 0.513853,0.340187 0,0 z m -42.539507,0.08956 0.04198,0.04198 z m 31.893435,0.03359 c -0.247994,0.413385 0.470106,0.128981 0,0 z m 11.855088,-0.04477 c -0.20579,0.327833 0.386494,0.0021 0,0 z m -2.261311,0.123136 c 0.307203,0.489289 0.689388,-0.237884 0,0 z m -9.806475,0.223891 c -0.348925,0.61343 0.724762,0.04092 0,0 z m 1.84711,0.694066 c 0.511404,-1.67635 -0.673624,-0.299107 0,0 z m -38.54303,-0.626763 c -0.892021,0.675795 0.91873,0.538697 0,0 z m 10.164702,0.03359 0.04198,0.04198 z m 30.012741,-0.01127 c -0.02622,0.395672 0.343595,-0.180255 0,0 z m -32.609889,0.257475 c 0.412062,1.928964 0.847039,-0.870083 0,0 z m 27.404397,-0.145522 c 0.61633,1.611575 1.179676,-0.214004 0,0 z m 12.146148,0 0.03359,0.04198 z m 0.425396,0 c -0.58933,0.302084 0.53124,0.293128 0,0 z M 22.313422,25.38348 c 0.0028,0.942351 0.729743,-0.171791 0,0 z m 6.627207,-0.04477 c 0.0021,0.386487 0.327834,-0.205792 0,0 z m 25.366978,-0.02239 c -0.12498,0.941982 1.933008,-0.303798 0,0 z m 1.813527,0.201504 c -1.348771,1.059116 1.788776,-0.08249 0,0 z m 10.131119,-0.02239 c 0.30896,0.444188 1.686579,-0.392575 0,0 z M 26.947989,25.585 c 0.135479,0.45884 0.4052,-0.263505 0,0 z m 25.143086,0.123135 c 0.167438,1.759554 1.452948,-1.104358 0,0 z m 2.585954,0 c -0.763459,0.816571 2.265968,0.700841 0,0 z m -44.81201,0.07836 c 0.290892,0.909016 1.02762,0.03176 0,0 z m 20.967499,0.02239 c -0.0026,0.397889 0.34148,-0.194602 0,0 z m 27.6059,0 c 0.141946,0.51392 0.580026,-0.193953 0,0 z m -42.707424,0.134337 0.04198,0.05037 z m 4.354701,-0.02239 c -0.0868,0.485724 0.488499,-0.05583 0,0 z m 40.837926,0.07836 c -0.642113,0.959811 1.933061,-0.245836 0,0 z m -39.158735,0.04477 c -0.829352,0.07454 0.235355,0.498475 0,0 z m 4.018865,0.16792 c -0.169253,0.865149 0.601687,-0.03734 0,0 z m 14.127593,-0.06718 c -0.965143,2.155203 1.778319,0.78778 0,0 z m -24.818443,0.26867 c 0.217511,0.542274 0.676344,-0.214095 0,0 z m 38.990814,0.391812 c 1.185879,-0.39265 0.960867,-0.857105 0,0 z m 2.57476,-0.190308 c 1.593665,0.89543 0.394398,-0.703896 0,0 z M 58.93098,26.49174 c -0.63892,0.184035 0.34232,0.416346 0,0 z m -3.69422,0.156724 c -0.247534,0.424215 0.476924,0.121012 0,0 z m 5.933141,-0.02239 c -0.839158,0.158193 0.23398,0.549287 0,0 z m -50.700373,0.05598 c -0.0129,0.396966 0.341704,-0.19346 0,0 z m 7.265299,0.100749 c 0.01094,0.699663 0.689499,0.05805 0,0 z m 48.483843,0.179113 c 0.480472,1.027347 0.553607,-0.931765 0,0 z M 9.1261749,26.827588 c -0.0129,0.396967 0.341704,-0.193458 0,0 z m 5.6084971,0 c -0.09796,0.52828 0.611372,-0.171457 0,0 z m 23.732567,-0.01127 c -1.484181,1.326373 0.633504,0.459641 0,0 z m 25.064725,-0.01127 c -0.01127,0.385316 0.32986,-0.192621 0,0 z m -4.455453,0.167918 c 0.16381,0.499051 1.742261,0.194701 0,0 z M 8.544056,27.073722 c -0.4526204,0.457272 0.5810445,0.431579 0,0 z m 48.730123,-0.01127 c -0.926477,1.660685 1.729948,-0.17365 0,0 z m -15.784395,0.100748 0.04198,0.04198 z m 18.515879,0.03359 c 0.891314,0.69914 1.478941,-0.410488 0,0 z m -45.270991,0.08956 0.04198,0.04198 z m 22.142934,0.100748 c -0.197753,0.338342 0.387388,0.0023 0,0 z m -11.295359,0.335839 0.04198,0.04198 z m -7.735473,0.07836 c -0.376968,0.402195 0.506589,0.109109 0,0 z m 20.50852,0.03359 0.04198,0.04198 z m 2.104585,0.01127 0.04198,0.05037 z m -24.504994,0.11195 0.04198,0.04198 z m 4.69054,0.02239 c -0.179819,0.545261 0.556888,0.03202 0,0 z m 2.350868,-0.03359 c -0.108717,0.566994 0.566123,-0.07705 0,0 z m -2.015029,0.235087 0.04198,0.04198 z m -5.149519,0.08956 c -0.387826,0.288927 0.388597,0.2809 0,0 z m 11.418499,-0.03359 c -0.695824,1.004089 1.640973,0.822562 0,0 z m -12.190928,0.167919 0.04198,0.04198 z m 4.813682,0.11195 0.04198,0.04198 z m -10.3997894,0.12314 c -0.1352675,0.750516 0.6878964,-0.162144 0,0 z M 11.029259,28.5962 c -0.0047,0.386706 0.336823,-0.208731 0,0 z m 0.425395,0.167918 c -0.09007,0.47455 0.484837,-0.07176 0,0 z m -2.1269755,0.190309 c -0.5428499,0.481816 0.5387399,0.239941 0,0 z m 28.4566895,0 0.04198,0.04198 z m -11.64239,0.100748 c -0.008,0.386497 0.338614,-0.196693 0,0 z m -2.59715,0.123135 c -0.209752,0.336535 0.387591,0.0054 0,0 z m -11.731947,0.111951 0.04198,0.04198 z m 5.709249,0.123135 0.04198,0.04198 z m 0.570924,-0.02239 c -0.05583,0.488493 0.485724,-0.0868 0,0 z m 4.041255,0 c 0.138288,0.479458 0.43669,-0.248805 0,0 z m 2.977764,0.02239 c -0.206596,0.339721 0.398171,4.47e-4 0,0 z m 14.351487,0.649287 0.04198,0.04198 z m -0.559731,0.100749 c 0.0052,0.387584 0.336533,-0.209756 0,0 z m 18.157653,0.145522 c -0.09392,0.464063 0.483437,-0.05851 0,0 z m -18.6838,0.201501 c -0.0098,0.5567 0.552342,-0.173104 0,0 z m -0.26867,0.570926 c -0.19669,0.338606 0.386505,-0.008 0,0 z m -8.720599,0.794818 0.04198,0.04198 z m 25.523703,-0.02239 c 0.0052,0.387584 0.336533,-0.209755 0,0 z M 5.0961174,32.637434 c -0.00474,0.386706 0.3368233,-0.20873 0,0 z m -0.8060125,0.11195 c -0.5378223,0.174839 0.3414802,0.313493 0,0 z m 34.3114691,0.01127 c -0.348533,0.509763 0.495653,0.09381 0,0 z m 0.503757,0.358227 c -0.05676,0.488291 0.488299,-0.05676 0,0 z m 9.896034,16.265764 c 2.061845,0.05341 5.04748,-0.124425 1.312746,-0.461253 -0.477618,-0.156234 -1.213518,-0.219053 -1.312746,0.461253 z" id="path30" inkscape:connector-curvature="0" sodipodi:nodetypes="cccccccccccccccccccccccccccccccccccccccccccccccccccccccccccccccccccccccccccccccccccccccccccccccccccccccccccccccccccccccccccccccccccccccccccccccccccccccccccccccccccccccccccccccccccccccccccccccccccccccccccccccccccccccccccccccccccccccccccccccccccccccccccccccccccccccccccccccccccccccccccccccccccccccccccccccccccccccccccccccccccccccccccccccccccccccccccccccccccccccccccccccccccccccccccccccccccccccccccccccccccccccccccccccccccccccccccccccccccccccccccccccccccccccccccccccccccccccccccccccccccccccccccccccccccccccccccccccccccccccccccccccccccccccccccccccccccccccccccccccccccccccccccccccccccccccccccccccccccccccccccccccccccccccccccccccccccccccccccccccccccccccccccccccccccccccccccccccccccccccccccccccccccccccccccccccccccccccccccccccccccccccccccccccc"/>
</svg>