<svg xmlns="http://www.w3.org/2000/svg" xmlns:xlink="http://www.w3.org/1999/xlink" version="1.1" id="Your_Icon" x="0px" y="0px" width="100px" height="100px" viewBox="5.0 -10.0 100.0 135.0" enable-background="new 0 0 100 100" xml:space="preserve">
<path d="M66.72,28.343c4.144-1.864,6.555-4.781,7.327-6.503c0.771-1.723,0.419-3.397-2.193-5.257  c-2.613-1.861-7.58-7.076-7.58-7.076l2.148-7.638c-3.342,0.477-8.192,5.435-8.695,6.862c-3.032,1.536-15.148,7.367-9.862,19.842  c2.812,6.64-0.536,7.486-2.456,8.551c-2.201,1.218-11.45,2.172-15.051,16.964c-3.601,14.792-5.344,20.215-4.264,25.8  c-1.626,1.478-2.667,3.493-2.549,6.303c0.119,2.81,5.566,7.179,10.217,8.58c6.556,1.975,24.042,2.646,31.745-1.62  c7.703-4.267,11.87-12.425,6.354-15.454c-1.542-0.847-2.654,0.937-4.944,0.17c-1.477-0.493,0.009,2.72,0.883,2.876  c0.873,0.155,1.492-0.146,1.809,0.922c0.656,2.224-5.227,4.777-5.227,4.777l0.705-6.629l-0.025-0.009l0.944-10.655l0.021,0.021  c0.284-5.332,1.026-12.814,2.967-13.613c3.043-1.254,8.416-7.394,3.339-14.218C67.261,34.515,62.572,30.208,66.72,28.343z"/>
<text x="0.0" y="117.5" font-size="5.0" font-weight="bold" font-family="Helvetica Neue, Helvetica, Arial-Unicode, Arial, Sans-serif" fill="#000000">Created by simone moecker</text><text x="0.0" y="122.5" font-size="5.0" font-weight="bold" font-family="Helvetica Neue, Helvetica, Arial-Unicode, Arial, Sans-serif" fill="#000000">from the Noun Project</text></svg>