<?xml version="1.0" encoding="utf-8"?>
<!-- Generator: Adobe Illustrator 18.1.1, SVG Export Plug-In . SVG Version: 6.00 Build 0)  -->
<svg version="1.1" id="Layer_1" xmlns="http://www.w3.org/2000/svg" xmlns:xlink="http://www.w3.org/1999/xlink" x="0px" y="0px"
	 viewBox="0 0 34.1 45.1" enable-background="new 0 0 34.1 45.1" xml:space="preserve">
<path fill="#FFFFFF" d="M6.3,45L6.3,45c-2.6-0.2-6.4-0.9-6.3-4.9c-0.1-1.3,0.7-3.1,1.6-4.1c-0.3-2.2,0.3-4.5,1.4-9
	c0.2-0.8,0.4-1.6,0.6-2.5c1.5-6.2,5.2-7.5,6.8-8.1c0.2-0.1,0.4-0.1,0.5-0.2c0.1-0.1,0.2-0.1,0.3-0.2c0.7-0.4,1.2-0.6,0.4-2.4
	c-1.2-2.9-1.4-7,4.6-10.1c0.7-1.2,2.9-3.1,4.5-3.3L22.2,0l-1.2,4.4c0.8,0.8,2.1,2.1,2.9,2.7c1.8,1.3,1.7,2.7,1.3,3.6
	c-0.4,1-1.7,2.5-3.8,3.4c-0.1,0.1-0.2,0.1-0.2,0.1c0,0.3,1.1,1.6,1.8,2.6c0.4,0.5,0.8,1,1.3,1.6c1.3,1.8,1.3,3.4,1,4.5
	c-0.5,1.7-1.7,2.9-2.8,3.4c-0.1,0.2-0.6,1.2-0.8,5l2.3,3.1L28,45H6.3z"/>
<path fill="#351D0E" d="M20.6,31.6L20.6,31.6L20.6,31.6c0.1-2.4,0.5-5.8,1.3-6.2c1.4-0.6,3.8-3.3,1.5-6.4c-2.3-3.1-4.4-5-2.5-5.9
	c1.9-0.8,3-2.2,3.3-2.9c0.3-0.8,0.2-1.5-1-2.4c-1.2-0.8-3.4-3.2-3.4-3.2l1-3.4c-1.5,0.2-3.7,2.4-3.9,3.1c-1.4,0.7-6.8,3.3-4.4,8.9
	c1.3,3-0.2,3.4-1.1,3.9c-1,0.5-5.2,1-6.8,7.6c-1.6,6.7-2.4,9.1-1.9,11.6C1.9,37,0.9,38.9,1,40.1c0,3.1,2.7,3.7,6.3,3.9v0h19.2
	l-3.5-9.2L20.6,31.6z"/>
<path fill="#FFFFFF" d="M13.9,45.1c-0.5,0-0.9-0.3-1.1-0.7c-0.2-0.6,0.2-1.3,0.5-1.7V29.2c-1.5-1.1-2.4-2.6-2.4-4
	c0-0.7,0.1-1.4,0.4-2c0,0,0-2.5,0-2.5c0-0.8,0.7-1.5,1.5-1.5c0.2,0,0.4,0,0.6,0.1l1.8,0.9c0.3-0.1,0.6-0.1,0.9-0.1
	c0.3,0,0.6,0,0.9,0.1l1.8-0.9c0.2-0.1,0.4-0.1,0.6-0.1c0.8,0,1.5,0.7,1.5,1.5l0,2.5c0.3,0.6,0.4,1.3,0.4,2c0,0.3,0,0.5-0.1,0.8
	c5,2.9,7.9,8.2,7.7,14.1c0.1-0.1,0.2-0.2,0.3-0.4c1.1-1.4,1.4-3.3,0.7-4.9c-0.5-1.1-1.3-2.1-2.3-3.2l-0.1-0.1
	c-1.3-1.4-2.3-2.7-3-4.5c-0.8-2.3-0.5-4.8,1-6.4c0.9-1,2.3-1.6,3.7-1.6l0.1,0c1.3,0,2.5,0.6,3.3,1.5c0.7,0.8,0.6,2.1-0.3,2.8
	c-0.4,0.3-0.8,0.5-1.3,0.5c-0.6,0-1.1-0.3-1.5-0.7c0,0-0.2-0.1-0.4-0.1c0,0,0,0,0,0c-0.4,0-0.7,0.2-0.9,0.3
	c-0.5,0.5-0.5,1.5-0.2,2.4c0.4,1.1,1.2,2.1,2.2,3.2l0.1,0.1c1.1,1.3,2.2,2.6,3,4.3c1.2,2.9,0.7,6.3-1.3,8.8
	c-1.5,1.9-2.9,2.7-5.1,2.9c-0.1,0-0.3,0-6.5,0H13.9z"/>
<path fill="#914520" d="M32.5,33.7c-0.6-1.5-1.7-2.8-2.8-4l-0.1-0.1c-1.1-1.2-2-2.3-2.4-3.5c-0.5-1.3-0.3-2.6,0.4-3.4
	c0.4-0.4,1-0.7,1.6-0.7c0.3,0,0.8,0.1,1.1,0.5c0.3,0.4,0.9,0.5,1.4,0.1c0.4-0.3,0.5-0.9,0.1-1.4c-0.6-0.7-1.5-1.1-2.5-1.2
	c-1.2,0-2.3,0.5-3.1,1.3c-1.2,1.3-1.5,3.4-0.8,5.3c0.6,1.6,1.6,2.8,2.8,4.2l0.1,0.1c1,1.1,1.9,2.2,2.4,3.4c0.8,1.9,0.5,4.2-0.8,5.9
	c-0.6,0.8-1.4,1.4-2.3,1.8c1.1-6.8-2.2-12.8-7.6-15.6c0,0-0.1,0-0.1-0.1c0.2-0.4,0.3-0.8,0.3-1.3c0-0.7-0.2-1.3-0.4-1.8
	c0-0.1,0-0.1,0-0.2l0-2.5c0-0.4-0.4-0.6-0.7-0.5l-2.1,1c-0.3-0.1-0.7-0.1-1.1-0.1c-0.4,0-0.7,0-1.1,0.1l-2.1-1
	c-0.3-0.2-0.7,0.1-0.7,0.5l0,2.5c0,0.1,0,0.1,0,0.2c-0.3,0.5-0.4,1.2-0.4,1.8c0,1.4,1.2,2.7,2.4,3.5v14.4c-0.3,0.2-0.9,1-0.5,1
	c3.4,0,3.9,0,6.5,0c0.4,0,6.8,0,7.1,0c1.9-0.2,3.1-0.8,4.4-2.5C33.1,39.3,33.6,36.3,32.5,33.7z"/>
</svg>
